<?xml version="1.0" standalone="no"?>
<!DOCTYPE svg PUBLIC "-//W3C//DTD SVG 20010904//EN"
 "http://www.w3.org/TR/2001/REC-SVG-20010904/DTD/svg10.dtd">
<svg version="1.0" xmlns="http://www.w3.org/2000/svg"
 width="691.429673pt" height="940.996531pt" viewBox="0 0 691.429673 940.996531"
 preserveAspectRatio="xMidYMid meet">
<metadata>
Created by potrace 1.16, written by Peter Selinger 2001-2019
</metadata>
<g transform="translate(-603.570131,1016.000000) scale(0.100000,-0.100000)"
fill="#ffffff" stroke="none">
<path d="M8980 10136 c0 -24 16 -36 51 -36 18 0 19 -11 19 -290 l0 -290 45 0
45 0 0 164 0 164 36 23 c20 12 54 24 77 26 34 4 46 1 62 -17 18 -20 20 -39 23
-191 l4 -169 39 0 39 0 0 188 c0 168 -2 190 -20 219 -10 17 -29 37 -42 44 -38
21 -109 14 -166 -15 l-52 -26 0 115 0 115 -80 0 c-78 0 -80 -1 -80 -24z"/>
<path d="M11420 10065 c0 -52 -2 -95 -3 -95 -2 0 -18 7 -36 16 -67 33 -158 -3
-216 -85 -27 -38 -30 -52 -34 -127 -2 -54 2 -96 10 -117 46 -115 152 -171 267
-141 41 11 63 12 85 4 54 -19 67 -14 67 25 0 28 -5 38 -25 47 l-25 11 0 279 0
278 -45 0 -45 0 0 -95z m-22 -161 c21 -14 22 -21 22 -164 l0 -149 -35 -7
c-101 -19 -174 54 -175 174 0 100 47 162 124 162 23 0 52 -7 64 -16z"/>
<path d="M7030 10045 l0 -55 -65 0 -65 0 0 -40 0 -40 65 0 65 0 0 -145 c0
-222 15 -245 167 -245 l93 0 0 40 0 40 -68 0 c-105 0 -106 1 -110 169 l-4 141
91 0 91 0 0 40 0 40 -90 0 -90 0 0 55 0 55 -40 0 -40 0 0 -55z"/>
<path d="M7440 9975 c0 -26 3 -29 53 -39 l27 -6 0 -170 0 -170 -50 0 -50 0 0
-35 0 -35 180 0 180 0 0 35 0 35 -85 0 -85 0 0 134 0 135 37 30 c42 35 94 41
130 16 19 -13 23 -13 47 6 34 27 33 45 -6 69 -50 30 -115 27 -169 -10 l-44
-29 -5 27 c-5 26 -7 27 -83 30 -77 3 -77 3 -77 -23z"/>
<path d="M8036 9984 c-22 -8 -41 -16 -43 -18 -2 -2 4 -17 14 -35 12 -20 23
-29 33 -25 37 14 111 23 144 17 39 -6 49 -18 60 -69 l7 -31 -68 -6 c-98 -10
-140 -24 -180 -61 -31 -28 -37 -40 -41 -89 -4 -48 -1 -63 19 -91 31 -45 77
-66 147 -66 43 0 67 6 97 24 40 25 40 25 61 5 12 -11 38 -22 58 -26 36 -6 36
-5 36 30 0 26 -6 39 -25 51 -25 16 -25 18 -25 169 -1 165 -6 185 -56 218 -23
15 -46 19 -114 18 -47 0 -102 -7 -124 -15z m214 -283 c0 -58 -30 -95 -91 -111
-74 -20 -142 33 -120 93 17 44 66 65 154 66 l57 1 0 -49z"/>
<path d="M8598 9980 c-52 -28 -78 -65 -78 -113 0 -55 43 -93 155 -136 93 -36
125 -59 125 -89 0 -59 -119 -76 -203 -30 l-45 26 -29 -30 c-31 -32 -32 -31 42
-70 27 -14 65 -23 116 -26 126 -7 202 40 202 127 0 59 -26 87 -122 132 -139
65 -150 71 -155 86 -24 63 111 90 190 38 30 -19 27 -20 52 15 l22 30 -42 27
c-59 36 -175 43 -230 13z"/>
<path d="M9510 9971 c0 -26 4 -30 33 -33 l32 -3 5 -290 5 -290 43 -3 42 -3 0
100 0 100 28 -15 c95 -49 218 27 257 159 38 128 3 246 -87 293 -39 20 -117 18
-161 -6 -20 -11 -39 -20 -42 -20 -3 0 -5 9 -5 20 0 18 -7 20 -75 20 l-75 0 0
-29z m340 -66 c44 -39 45 -178 4 -244 -40 -63 -107 -80 -158 -40 -25 20 -26
24 -26 128 0 119 9 142 64 167 37 17 91 11 116 -11z"/>
<path d="M10156 9984 c-22 -8 -41 -16 -44 -18 -2 -3 4 -19 14 -36 13 -20 23
-28 34 -24 30 13 114 23 139 17 40 -9 61 -33 61 -68 l0 -32 -72 -7 c-90 -9
-166 -43 -191 -86 -41 -69 -16 -164 53 -202 51 -28 157 -22 201 12 22 15 34
19 37 12 6 -18 57 -42 87 -42 22 0 25 4 25 35 0 25 -5 38 -17 42 -10 4 -21 11
-25 17 -4 6 -8 78 -8 159 0 168 -8 193 -67 221 -42 20 -172 20 -227 0z m204
-288 c0 -48 -3 -57 -31 -80 -47 -40 -121 -39 -156 0 -28 31 -29 54 -2 88 24
30 64 44 137 45 l52 1 0 -54z"/>
<path d="M10798 9990 c-15 -4 -43 -18 -62 -29 l-35 -22 -3 23 c-2 19 -10 24
-40 26 l-38 3 0 -235 0 -236 40 0 40 0 0 170 0 169 46 27 c25 15 65 29 88 31
71 8 76 -7 76 -219 l0 -178 45 0 45 0 0 178 c0 199 -8 240 -51 276 -32 27 -93
34 -151 16z"/>
<path d="M11746 9984 c-22 -8 -41 -16 -44 -18 -2 -3 4 -19 14 -36 13 -20 23
-28 34 -24 30 13 114 23 139 17 40 -9 61 -33 61 -68 l0 -32 -72 -7 c-90 -9
-166 -43 -191 -86 -41 -69 -16 -164 53 -202 51 -28 157 -22 201 12 22 15 34
19 37 12 6 -18 57 -42 87 -42 22 0 25 4 25 35 0 25 -5 38 -17 42 -10 4 -21 11
-25 17 -4 6 -8 78 -8 159 0 168 -8 193 -67 221 -42 20 -172 20 -227 0z m204
-288 c0 -48 -3 -57 -31 -80 -47 -40 -121 -39 -156 0 -28 31 -29 54 -2 88 24
30 64 44 137 45 l52 1 0 -54z"/>
<path d="M9295 9236 c-616 -206 -1155 -570 -1605 -1083 l-55 -63 -80 61 c-286
218 -638 419 -875 500 -79 27 -111 33 -185 33 -75 1 -97 -3 -132 -21 -187
-101 -233 -455 -127 -987 58 -289 166 -594 297 -835 32 -57 57 -107 57 -111 0
-4 -36 -56 -81 -116 -239 -321 -375 -614 -451 -974 -18 -88 -22 -138 -22 -310
-1 -179 2 -218 22 -310 71 -319 204 -535 486 -793 259 -237 522 -408 991 -648
244 -124 341 -170 655 -309 220 -98 429 -175 452 -168 22 8 -217 144 -772 443
-602 323 -768 422 -1015 605 -280 208 -447 392 -556 615 -96 198 -130 342
-130 560 0 285 75 559 238 862 57 108 200 327 263 403 52 65 80 114 80 143 0
14 -18 58 -39 99 -45 82 -120 264 -151 365 -22 72 -41 183 -33 196 2 4 34 -50
69 -120 60 -118 143 -245 221 -338 l32 -39 -6 37 -6 37 44 -19 c55 -25 64 -18
19 16 -75 57 -209 223 -180 223 5 0 38 -20 73 -45 67 -47 147 -85 175 -84 13
0 11 4 -8 17 -77 52 -176 169 -158 187 3 4 25 -3 49 -15 84 -43 228 -78 265
-63 7 3 -31 27 -88 54 -78 39 -117 66 -172 119 -54 52 -75 67 -86 60 -27 -17
-47 -10 -60 20 -17 40 -7 47 27 20 l28 -22 3 25 3 25 69 -39 c38 -21 102 -50
142 -63 78 -26 228 -45 228 -29 0 5 -50 31 -111 57 -112 49 -174 91 -249 168
-62 64 -150 197 -150 227 0 6 39 -19 87 -55 109 -82 188 -126 294 -165 102
-37 124 -32 43 9 -81 41 -232 168 -322 272 -75 86 -169 217 -161 224 2 2 33
-18 69 -46 155 -118 260 -180 525 -311 76 -38 163 -84 192 -103 65 -42 134
-77 139 -71 10 10 -264 334 -355 419 -108 102 -338 282 -467 364 -31 20 -54
38 -52 40 13 12 253 -88 462 -193 225 -113 399 -243 553 -416 l52 -58 61 31
c133 67 425 166 466 158 11 -2 -16 -25 -72 -62 -176 -117 -356 -256 -330 -256
3 0 50 22 104 49 230 115 550 226 782 270 254 48 358 56 720 56 364 0 461 -7
695 -50 271 -50 525 -136 795 -268 69 -34 129 -63 134 -66 51 -23 -124 114
-313 244 -63 43 -109 81 -103 83 31 10 294 -76 440 -144 l94 -44 105 111 c172
179 343 294 635 428 157 71 318 135 324 128 2 -2 -48 -38 -110 -80 -218 -147
-418 -320 -550 -476 -266 -313 -265 -309 -102 -212 45 27 183 100 307 164 212
107 309 167 436 268 29 22 57 39 63 37 19 -6 -121 -181 -239 -299 -69 -68
-150 -137 -199 -169 -45 -29 -80 -55 -78 -57 2 -2 41 10 87 27 99 36 183 84
302 174 l87 66 -14 -35 c-8 -19 -29 -56 -47 -82 -96 -142 -204 -235 -343 -296
-52 -23 -94 -46 -93 -52 3 -13 77 -8 152 11 65 16 229 90 246 111 15 18 39 17
39 -2 0 -8 5 -15 11 -15 5 0 7 -4 4 -10 -3 -5 -15 -10 -25 -10 -10 0 -38 -23
-62 -51 -53 -64 -143 -129 -239 -173 l-74 -35 51 0 c60 -1 186 29 243 59 33
16 41 18 41 6 0 -24 -63 -99 -118 -140 -29 -21 -50 -41 -48 -43 16 -16 117 35
224 113 12 9 22 12 22 6 0 -23 -110 -160 -162 -202 -31 -25 -55 -46 -53 -48 2
-2 19 1 37 7 44 14 53 11 50 -19 -3 -24 -1 -23 27 10 73 84 148 200 213 327
39 76 74 140 79 141 17 7 9 -66 -17 -154 -32 -113 -99 -283 -158 -403 -25 -52
-46 -107 -46 -122 0 -17 20 -56 50 -101 224 -325 297 -449 383 -653 149 -350
182 -691 98 -984 -106 -367 -366 -666 -865 -995 -180 -120 -326 -202 -966
-546 -419 -226 -610 -335 -610 -351 0 -12 -3 -12 71 12 282 92 837 348 1295
596 443 241 846 572 1028 845 161 242 226 462 226 762 0 439 -164 883 -486
1317 -62 83 -74 114 -55 135 22 22 162 319 206 434 129 339 196 667 197 955 0
248 -41 388 -138 474 -116 102 -288 77 -629 -92 -204 -101 -431 -244 -605
-381 l-85 -68 -54 64 c-99 115 -354 362 -476 459 -334 269 -682 464 -1075 605
-121 43 -233 74 -268 74 -15 -1 -99 -25 -187 -54z m-2614 -1607 c45 -35 53
-76 19 -97 -19 -11 -22 -9 -40 34 -25 57 -34 94 -25 94 4 0 25 -14 46 -31z
m5646 -44 c-17 -48 -50 -56 -55 -14 -2 20 5 33 30 54 39 33 46 21 25 -40z
m-5732 -35 c8 -16 15 -33 15 -37 -1 -13 -40 41 -40 55 0 20 9 14 25 -18z
m5805 3 c0 -14 -41 -75 -46 -70 -3 3 5 21 18 41 24 37 28 41 28 29z"/>
<path d="M9305 7834 c-16 -2 -86 -9 -155 -15 -483 -42 -940 -184 -1313 -407
-389 -233 -836 -641 -1109 -1013 -67 -90 -200 -308 -229 -376 -45 -103 -92
-220 -105 -264 -52 -173 -76 -429 -56 -604 22 -188 113 -405 226 -536 65 -74
123 -125 133 -116 3 3 -7 31 -22 63 -98 208 -165 495 -165 712 0 323 111 643
341 987 109 161 185 254 347 419 455 463 838 706 1345 852 456 131 1064 159
1585 73 416 -69 804 -234 1143 -486 354 -262 672 -586 874 -888 135 -204 256
-484 302 -702 26 -121 22 -408 -6 -536 -31 -138 -86 -307 -133 -410 -22 -48
-38 -93 -36 -99 6 -17 147 126 195 197 134 200 193 422 180 679 -11 211 -40
342 -119 541 -157 398 -516 841 -988 1220 -138 112 -356 262 -485 336 -261
149 -624 272 -975 329 -242 40 -623 61 -775 44z"/>
<path d="M9780 6818 c-69 -95 -124 -230 -166 -413 -26 -110 -26 -427 0 -565 9
-52 22 -132 28 -176 l12 -81 -36 -49 c-20 -27 -57 -69 -82 -93 l-45 -44 -33
25 c-37 28 -110 118 -128 159 -9 20 -6 51 14 160 69 356 55 609 -46 874 -31
79 -122 235 -138 235 -5 0 0 -26 11 -57 23 -67 64 -229 74 -292 10 -61 -3 -49
-75 72 -59 99 -138 203 -147 193 -2 -2 10 -48 27 -102 17 -53 29 -109 27 -123
-3 -25 -4 -24 -21 13 -9 21 -38 61 -64 88 -49 53 -130 114 -139 105 -2 -3 26
-54 64 -114 160 -249 239 -526 250 -875 l6 -178 -31 -62 c-17 -35 -57 -94 -88
-133 -169 -209 -374 -501 -508 -725 -31 -52 -60 -98 -65 -103 -4 -4 -88 20
-187 53 -193 63 -349 99 -559 127 -165 21 -536 24 -642 5 -126 -24 -103 -33
112 -47 109 -7 343 -35 368 -44 13 -5 -515 -117 -698 -148 -16 -2 -48 -9 -70
-15 -51 -13 -34 -23 72 -44 147 -28 356 -46 758 -65 202 -9 297 -20 265 -31
-8 -3 -82 -20 -165 -38 -148 -32 -223 -55 -212 -66 3 -3 142 -9 309 -14 276
-7 408 -20 408 -39 0 -4 -51 -12 -113 -19 -202 -21 -420 -74 -449 -109 -12
-15 -8 -16 37 -9 213 29 424 27 577 -5 82 -17 77 -25 -20 -33 -50 -4 -116 -13
-148 -22 -61 -15 -184 -68 -184 -79 0 -3 44 -3 98 1 71 4 123 2 197 -11 179
-31 258 -69 442 -213 175 -137 302 -185 486 -184 55 0 103 4 108 9 5 5 -19 16
-62 26 -95 23 -207 76 -290 138 -60 44 -99 86 -87 93 2 1 10 7 19 14 11 8 25
9 54 1 l39 -11 -22 -19 -23 -18 40 -21 c60 -30 170 -50 280 -50 121 0 193 20
239 66 l33 33 33 -33 c47 -46 108 -61 251 -61 131 0 220 18 308 62 109 54 44
-20 -86 -99 -39 -24 -120 -59 -180 -79 -60 -20 -104 -39 -98 -43 6 -4 53 -8
104 -8 166 -1 318 57 466 176 118 95 177 133 261 165 120 47 219 64 363 63
106 0 126 2 117 13 -20 24 -178 74 -273 86 -122 16 -134 24 -56 39 101 19 368
24 497 10 62 -7 116 -10 119 -6 10 10 -88 47 -203 76 -61 16 -168 34 -238 41
-69 7 -126 15 -126 19 0 21 127 33 407 39 166 3 305 9 309 13 4 4 -6 12 -22
19 -38 14 -256 66 -317 74 -26 4 -49 11 -52 15 -7 12 185 30 431 40 338 14
546 36 678 71 52 14 36 24 -75 43 -76 14 -316 60 -602 118 -63 12 -103 24 -95
29 14 8 255 35 388 44 144 10 193 16 184 25 -16 16 -242 40 -375 40 -220 0
-533 -40 -749 -95 -53 -13 -154 -45 -225 -70 -103 -36 -131 -43 -140 -33 -7 7
-56 85 -110 173 -117 192 -253 386 -390 555 -108 134 -153 197 -174 245 -30
66 -8 450 35 620 44 174 118 348 206 483 34 51 58 95 55 99 -10 9 -83 -42
-134 -93 -25 -25 -54 -66 -66 -92 -22 -46 -22 -46 -25 -17 -1 17 13 76 32 133
19 56 31 102 27 102 -15 0 -101 -118 -160 -220 -32 -56 -61 -98 -64 -93 -11
18 33 222 73 337 11 33 18 61 16 64 -3 2 -19 -16 -36 -40z m-73 -2153 c118
-36 189 -116 240 -269 21 -65 26 -101 27 -181 0 -93 -2 -105 -33 -171 -39 -84
-132 -182 -201 -213 -25 -11 -76 -25 -114 -32 -87 -15 -283 -7 -352 15 -91 28
-225 167 -254 264 -18 58 -23 174 -11 233 6 30 25 92 43 139 59 154 143 214
323 231 101 9 276 1 332 -16z m88 -5 c3 -5 2 -10 -4 -10 -5 0 -13 5 -16 10 -3
6 -2 10 4 10 5 0 13 -4 16 -10z m261 -741 c7 -12 -42 -66 -84 -91 l-28 -17 5
40 c5 29 14 44 36 59 33 22 60 26 71 9z m-1055 -22 c22 -14 36 -33 40 -55 3
-17 4 -32 0 -32 -22 0 -123 89 -115 102 9 14 40 9 75 -15z"/>
<path d="M9360 4565 c-8 -2 -32 -6 -53 -10 -73 -12 -142 -101 -162 -207 -8
-43 2 -49 31 -17 26 28 67 49 99 49 15 0 57 -12 93 -27 89 -37 165 -37 242 0
74 36 107 34 169 -7 42 -29 51 -32 51 -17 0 41 -44 143 -78 181 -32 35 -45 42
-97 50 -55 9 -260 12 -295 5z"/>
<path d="M9295 4100 c-20 -23 -65 -26 -95 -8 -32 20 -45 -3 -20 -35 40 -51
115 -42 142 19 16 35 -2 51 -27 24z"/>
<path d="M9650 4096 c0 -30 52 -76 86 -76 39 0 64 18 64 45 0 22 -2 23 -29 14
-23 -8 -36 -7 -60 5 -16 9 -33 20 -36 26 -11 18 -25 10 -25 -14z"/>
<path d="M8200 6846 c0 -2 29 -25 64 -50 58 -42 196 -179 196 -196 0 -4 -21 3
-48 16 -76 36 -198 74 -302 94 -133 26 -358 46 -371 33 -6 -6 47 -38 153 -91
147 -74 218 -117 207 -126 -2 -2 -64 2 -136 7 -122 10 -142 8 -249 -12 -134
-27 -245 -61 -325 -102 -78 -39 -82 -49 -17 -49 82 0 229 -25 278 -47 l45 -20
-30 -7 c-185 -44 -386 -115 -515 -182 l-75 -39 180 -6 c158 -5 249 -18 233
-34 -2 -3 -47 -16 -99 -29 -52 -14 -128 -37 -169 -51 -92 -33 -294 -136 -335
-171 l-30 -25 50 6 c28 3 73 10 100 15 59 10 219 13 228 3 4 -4 -50 -30 -120
-58 -71 -28 -157 -66 -192 -84 -92 -47 -310 -206 -298 -217 1 -2 61 16 132 40
137 46 215 64 215 49 0 -4 -24 -27 -52 -50 -67 -53 -174 -161 -167 -168 3 -3
84 31 180 76 217 100 372 153 517 176 61 9 112 21 112 25 0 15 -52 29 -130 37
l-75 7 85 41 c113 55 225 89 335 103 49 6 91 13 93 15 10 9 -62 35 -138 49
-46 9 -85 18 -87 20 -2 2 9 8 24 14 69 28 169 44 311 49 122 5 151 8 140 18
-17 16 -93 45 -118 45 -35 0 -22 20 28 42 92 41 180 58 307 58 140 0 223 -19
304 -68 38 -24 51 -28 51 -17 0 19 -49 116 -82 165 -40 59 -43 64 -27 55 148
-86 289 -290 336 -487 10 -43 21 -78 25 -78 19 0 43 161 42 285 -1 151 -24
264 -77 379 -117 253 -290 399 -611 517 -78 28 -96 33 -96 25z m677 -799 c-3
-21 -4 -21 -14 3 -6 14 -13 41 -17 60 l-7 35 21 -38 c12 -21 19 -48 17 -60z"/>
<path d="M10663 6815 c-173 -62 -329 -156 -438 -261 -172 -166 -264 -478 -225
-759 14 -98 31 -166 40 -160 4 2 10 31 14 62 12 109 115 308 209 405 56 58
125 113 132 106 2 -2 -12 -28 -31 -57 -38 -56 -84 -148 -84 -168 0 -8 25 1 63
22 99 54 169 68 322 62 75 -2 155 -11 188 -21 72 -20 157 -56 157 -66 0 -4
-15 -10 -34 -13 -34 -5 -139 -47 -133 -53 2 -2 73 -5 157 -8 110 -3 179 -11
239 -25 71 -18 128 -39 111 -41 -61 -8 -164 -31 -195 -44 -52 -22 -36 -31 70
-41 90 -7 225 -49 330 -103 l70 -35 -88 -13 c-48 -7 -92 -16 -97 -19 -22 -14
-7 -23 48 -30 160 -19 333 -77 571 -191 85 -41 158 -74 162 -74 23 0 0 27
-106 121 -63 57 -113 105 -111 107 8 8 122 -21 234 -58 63 -21 111 -33 109
-27 -6 22 -232 176 -322 221 -49 25 -133 61 -185 81 -52 20 -99 40 -104 46
-13 12 171 11 239 -1 28 -5 73 -12 100 -15 l50 -6 -30 25 c-58 50 -305 165
-430 200 -66 19 -133 37 -148 41 -15 3 -25 9 -23 14 11 16 73 24 241 30 l170
6 -115 57 c-123 60 -314 128 -421 150 -36 7 -68 17 -70 22 -7 17 112 45 244
58 70 7 127 15 127 19 0 8 -151 77 -209 95 -169 52 -350 73 -493 57 -43 -5
-78 -5 -78 -1 0 15 111 80 245 144 155 74 151 82 -33 65 -216 -21 -394 -61
-526 -120 -62 -28 -66 -29 -55 -9 21 39 91 108 168 165 120 89 119 91 -26 38z
m-547 -749 c-10 -47 -24 -53 -31 -13 -8 42 -1 59 21 50 12 -4 14 -14 10 -37z"/>
<path d="M8409 5877 c-47 -31 -82 -101 -74 -147 15 -79 65 -122 144 -123 146
-2 195 196 69 273 -44 26 -97 25 -139 -3z"/>
<path d="M10423 5879 c-67 -43 -91 -150 -48 -215 24 -36 98 -68 141 -59 45 8
100 57 114 101 41 122 -102 241 -207 173z"/>
<path d="M8297 5323 c-15 -2 -34 -15 -43 -28 -13 -20 -13 -30 -3 -66 12 -39
12 -43 -10 -60 -13 -11 -29 -19 -37 -19 -8 0 -14 -9 -14 -20 0 -14 7 -20 24
-20 44 0 53 -27 31 -96 -9 -29 22 -62 68 -70 35 -6 37 -5 37 20 0 22 -4 26
-31 26 l-30 0 6 54 c6 46 4 56 -14 73 l-20 19 20 17 c17 15 20 28 17 70 -3 50
-2 52 25 55 21 3 27 9 27 28 0 13 -6 23 -12 23 -7 -1 -25 -4 -41 -6z"/>
<path d="M10600 5130 c0 -193 1 -200 20 -200 19 0 20 7 20 200 0 193 -1 200
-20 200 -19 0 -20 -7 -20 -200z"/>
<path d="M11630 5311 c0 -12 11 -21 33 -28 33 -10 33 -9 20 -76 -4 -20 1 -34
16 -51 l21 -23 -21 -19 c-15 -14 -19 -27 -16 -49 3 -16 7 -39 9 -50 2 -16 -3
-21 -29 -23 -28 -3 -33 -7 -33 -29 0 -24 2 -24 43 -18 51 8 70 29 62 70 -14
69 -12 79 22 95 39 18 45 50 9 50 -39 0 -51 23 -36 74 15 55 3 81 -41 90 -49
10 -59 7 -59 -13z"/>
<path d="M7755 5288 c-101 -88 -99 -234 3 -318 42 -35 48 -36 56 -13 4 11 -5
26 -28 48 -80 73 -78 193 4 257 21 17 29 29 24 41 -9 24 -18 21 -59 -15z"/>
<path d="M7966 5304 c-4 -10 5 -25 24 -41 82 -68 85 -179 8 -252 -26 -26 -37
-43 -32 -54 8 -23 14 -22 56 13 101 83 103 231 4 318 -41 36 -51 39 -60 16z"/>
<path d="M11090 5288 c-24 -26 -26 -56 -4 -86 15 -21 14 -25 -15 -58 -38 -42
-40 -81 -7 -117 32 -35 84 -44 127 -22 30 16 33 16 44 1 11 -14 14 -15 25 -1
10 12 9 20 -4 39 -14 22 -14 29 -1 67 19 53 19 69 -1 69 -8 0 -22 -16 -30 -35
-8 -19 -16 -35 -18 -35 -2 0 -22 24 -45 53 -51 67 -56 107 -12 107 16 0 31 -6
35 -15 3 -8 15 -15 26 -15 26 0 26 24 0 50 -28 28 -93 27 -120 -2z m74 -189
c30 -43 28 -54 -14 -64 -50 -12 -84 49 -50 90 19 23 33 18 64 -26z"/>
<path d="M7473 5225 c-14 -11 -16 -18 -7 -32 17 -28 48 -23 52 8 4 32 -18 43
-45 24z"/>
<path d="M10329 5224 c-16 -20 0 -49 27 -49 35 0 28 64 -7 65 -4 0 -12 -7 -20
-16z"/>
<path d="M10873 5233 c-19 -7 -16 -50 4 -57 24 -10 51 20 37 41 -12 19 -23 24
-41 16z"/>
<path d="M11940 5226 c-27 -33 18 -72 48 -42 13 13 14 20 6 34 -15 23 -38 26
-54 8z"/>
<path d="M12213 5233 c-19 -7 -16 -50 4 -57 24 -10 51 20 37 41 -12 19 -23 24
-41 16z"/>
<path d="M7473 5055 c-14 -11 -16 -18 -7 -32 17 -28 48 -23 52 8 4 32 -18 43
-45 24z"/>
<path d="M10336 5057 c-26 -19 -17 -52 14 -52 18 0 26 6 28 21 4 30 -20 47
-42 31z"/>
<path d="M10870 5055 c-19 -23 -8 -50 20 -50 18 0 26 6 28 22 4 29 -30 49 -48
28z"/>
<path d="M11945 5054 c-9 -9 -14 -23 -11 -30 3 -8 -1 -32 -9 -55 -18 -50 -18
-49 -2 -49 13 0 77 97 77 118 0 6 -9 16 -19 22 -15 7 -24 6 -36 -6z"/>
<path d="M12210 5055 c-19 -23 -8 -50 20 -50 18 0 26 6 28 22 4 29 -30 49 -48
28z"/>
<path d="M6575 3820 c-54 -54 -96 -102 -93 -105 3 -3 45 -1 94 5 49 5 94 10
101 10 7 0 17 19 24 43 7 26 25 56 50 79 21 21 39 39 39 42 0 4 -91 26 -108
26 -4 0 -52 -45 -107 -100z"/>
<path d="M12232 3910 c-18 -4 -36 -11 -39 -14 -4 -4 10 -24 31 -45 21 -21 43
-56 51 -77 14 -43 8 -40 158 -58 47 -6 57 -5 57 7 0 19 -186 191 -208 194 -9
1 -32 -2 -50 -7z"/>
<path d="M12064 3806 c-4 -10 -4 -68 0 -129 l7 -112 77 -78 c86 -88 150 -142
158 -134 8 8 -32 132 -73 227 -42 97 -88 172 -132 214 -27 26 -31 27 -37 12z"/>
<path d="M6850 3763 c-23 -27 -64 -93 -90 -148 -48 -101 -98 -250 -87 -261 9
-10 74 46 160 135 l77 81 0 120 c0 66 -4 120 -9 120 -5 0 -28 -21 -51 -47z"/>
<path d="M7020 3687 c0 -48 26 -137 50 -173 35 -50 253 -250 258 -236 1 5 -1
44 -7 87 -9 73 -12 80 -53 122 -52 54 -233 213 -242 213 -3 0 -6 -6 -6 -13z"/>
<path d="M11821 3587 c-68 -61 -132 -123 -142 -137 -17 -25 -35 -180 -20 -180
16 0 259 242 274 272 18 38 34 158 21 158 -5 0 -65 -51 -133 -113z"/>
<path d="M6506 3599 c-60 -16 -113 -32 -117 -36 -12 -12 -99 -183 -99 -194 0
-5 30 -9 66 -9 84 0 81 -16 -7 -48 -35 -13 -71 -27 -79 -31 -20 -11 -87 -276
-71 -285 3 -3 54 15 111 39 l105 42 6 94 c5 93 19 143 33 120 4 -6 13 -42 20
-79 7 -37 16 -67 21 -67 22 0 46 70 65 189 12 71 19 130 17 132 -2 2 -29 -13
-61 -32 -31 -20 -59 -34 -62 -32 -2 3 26 42 63 87 103 125 107 130 102 134 -2
2 -53 -9 -113 -24z"/>
<path d="M12370 3614 c0 -4 24 -37 53 -73 70 -87 100 -131 90 -131 -5 0 -31
14 -57 31 -27 16 -51 28 -54 25 -2 -3 5 -61 18 -128 22 -117 50 -198 69 -198
5 0 15 34 22 75 20 126 40 110 49 -38 l5 -98 92 -39 c129 -54 133 -55 133 -33
0 10 -15 72 -33 138 -37 131 -28 121 -139 169 -32 14 -58 30 -58 35 0 7 26 11
65 11 36 0 65 4 65 8 0 12 -89 175 -103 189 -7 6 -55 23 -109 37 -105 28 -108
29 -108 20z"/>
<path d="M9348 3410 c-227 -39 -444 -202 -551 -415 -63 -127 -70 -168 -76
-455 l-6 -265 -55 -5 c-64 -6 -103 -27 -130 -73 -19 -31 -20 -55 -20 -685 0
-724 -2 -703 64 -743 30 -18 68 -19 917 -19 884 0 886 0 913 21 58 46 56 19
56 744 l0 666 -39 41 c-35 38 -43 42 -98 46 l-60 4 -6 247 c-6 286 -17 347
-93 490 -105 199 -296 347 -511 395 -75 17 -223 20 -305 6z m354 -63 c120 -38
203 -90 298 -186 71 -71 94 -102 132 -181 69 -141 78 -197 78 -474 l0 -236
-100 0 -100 0 0 208 c0 144 -5 228 -15 277 -52 248 -258 416 -507 416 -184 1
-336 -81 -437 -232 -72 -107 -83 -160 -88 -431 l-6 -238 -99 0 -100 0 4 263
c4 252 5 265 31 342 38 115 91 199 182 290 113 113 235 179 379 205 89 16 261
5 348 -23z m-99 -232 c165 -43 294 -167 343 -330 15 -50 18 -98 19 -285 l0
-225 -478 -3 -478 -2 3 253 3 253 39 80 c104 210 329 316 549 259z m788 -916
l29 -31 0 -660 0 -660 -29 -29 -29 -29 -872 0 c-578 0 -878 3 -891 10 -49 27
-49 23 -49 716 l0 646 34 34 34 34 872 0 872 0 29 -31z"/>
<path d="M9402 1849 c-49 -25 -90 -79 -99 -132 -9 -60 5 -105 49 -153 l41 -45
-48 -185 c-40 -154 -46 -188 -34 -195 19 -12 330 -11 349 1 13 8 8 35 -33 197
l-49 187 26 19 c62 45 83 145 47 222 -22 48 -44 69 -94 90 -51 21 -104 19
-155 -6z m156 -39 c91 -55 96 -165 12 -240 l-39 -35 44 -170 c25 -93 45 -173
45 -177 0 -5 -61 -8 -136 -8 -124 0 -135 1 -130 18 2 9 24 90 46 179 l42 161
-40 37 c-64 57 -77 130 -36 192 39 60 130 81 192 43z"/>
<path d="M7629 3343 c-46 -50 -71 -93 -106 -181 -50 -127 -81 -290 -53 -280 5
2 55 52 110 111 l100 108 -7 127 c-3 70 -9 130 -12 135 -4 4 -19 -5 -32 -20z"/>
<path d="M11319 3308 c0 -35 -4 -90 -8 -123 -5 -33 -5 -69 -1 -80 11 -30 203
-236 211 -227 11 10 -16 155 -46 249 -32 103 -117 243 -147 243 -4 0 -8 -28
-9 -62z"/>
<path d="M6835 3303 c-33 -30 -84 -72 -112 -95 l-53 -40 0 -154 c0 -117 3
-154 13 -154 6 0 43 27 81 60 75 65 91 72 80 38 -13 -44 -33 -74 -89 -137 -47
-52 -55 -68 -50 -89 9 -35 85 -215 97 -227 6 -6 30 14 69 58 97 108 107 82 27
-72 l-51 -100 74 -116 c94 -146 113 -170 128 -161 12 8 151 278 151 295 0 4
-27 44 -61 87 -63 82 -95 134 -82 134 5 0 43 -23 86 -50 43 -28 82 -50 87 -50
8 0 37 118 64 260 l14 75 -92 86 c-50 48 -88 90 -84 94 6 7 82 -29 133 -64 47
-33 55 -28 55 33 l0 55 -72 63 c-40 35 -106 96 -147 136 -41 39 -75 72 -76 72
-1 0 -5 -77 -9 -171 -7 -195 -24 -370 -36 -383 -8 -8 -16 15 -40 114 -19 78
-32 185 -38 318 l-7 140 -60 -55z"/>
<path d="M12077 3227 c-6 -125 -34 -323 -59 -412 l-11 -40 -8 30 c-14 49 -28
204 -36 375 l-6 161 -81 -79 c-45 -43 -109 -102 -142 -130 -57 -48 -62 -56
-68 -103 -4 -31 -3 -56 3 -62 6 -6 37 6 89 37 126 74 131 59 18 -49 l-99 -93
7 -49 c10 -73 46 -245 57 -271 l9 -23 33 25 c49 37 139 88 145 82 6 -7 -37
-73 -100 -153 l-49 -62 25 -58 c26 -62 114 -232 126 -247 8 -8 79 87 157 212
l46 74 -41 76 c-39 75 -67 152 -54 152 4 0 37 -30 73 -66 60 -60 68 -65 77
-48 5 11 31 69 57 131 l48 112 -60 65 c-61 67 -113 150 -101 161 4 4 43 -23
88 -59 44 -36 83 -66 85 -66 3 0 5 71 5 158 l0 158 -52 39 c-29 22 -80 66
-114 97 l-61 57 -6 -132z"/>
<path d="M7806 3263 c15 -82 45 -142 87 -177 76 -61 323 -204 334 -193 10 11
-83 173 -122 212 -38 38 -277 195 -297 195 -5 0 -6 -16 -2 -37z"/>
<path d="M11024 3207 c-78 -51 -149 -98 -158 -105 -40 -35 -125 -212 -101
-212 5 0 42 19 84 41 194 107 288 184 308 254 18 63 26 115 17 114 -5 0 -73
-42 -150 -92z"/>
<path d="M7688 2933 c-31 -36 -150 -218 -175 -266 l-25 -51 17 -126 c21 -162
37 -232 50 -222 6 4 40 45 77 92 36 47 76 94 88 105 l23 20 -7 -20 c-5 -11
-16 -42 -26 -70 -10 -27 -37 -95 -60 -150 -23 -55 -44 -110 -47 -122 -3 -15
19 -63 72 -157 43 -75 81 -136 86 -136 5 0 22 21 37 46 41 70 113 167 119 160
8 -7 -26 -188 -49 -264 -12 -40 -16 -68 -10 -78 12 -21 294 -304 304 -304 4 0
12 9 18 19 17 34 99 260 120 336 l20 72 -135 137 c-127 128 -149 156 -125 156
5 0 68 -27 141 -60 72 -34 133 -59 135 -57 16 16 31 371 16 393 -4 6 -32 29
-62 50 -104 73 -261 196 -257 200 5 5 136 -43 220 -80 32 -14 60 -26 64 -26
10 0 -7 84 -22 107 -8 12 -36 34 -62 49 -110 62 -173 101 -266 166 -97 68
-120 79 -112 56 4 -12 11 -71 46 -378 5 -47 18 -131 29 -188 27 -139 25 -148
-16 -70 -63 123 -146 385 -188 592 -9 44 -18 81 -20 83 -1 2 -10 -5 -18 -14z"/>
<path d="M11276 2939 c-2 -8 -21 -81 -41 -163 -46 -189 -96 -345 -150 -466
-23 -52 -45 -104 -49 -114 -17 -47 -13 0 9 121 25 137 87 595 81 601 -2 2 -71
-41 -153 -95 -82 -54 -179 -114 -215 -133 -70 -37 -84 -54 -94 -122 -6 -33 -4
-40 7 -36 146 60 253 98 262 95 7 -2 -59 -57 -147 -121 l-158 -118 3 -193 c2
-106 7 -196 11 -200 4 -4 68 21 142 56 75 34 139 59 142 56 8 -7 -105 -134
-199 -225 l-65 -62 20 -73 c49 -176 120 -361 138 -355 19 6 183 162 250 238
l69 79 -19 54 c-22 62 -63 254 -57 270 4 14 76 -77 117 -148 17 -30 36 -55 41
-55 11 0 38 43 113 179 l57 103 -40 92 c-55 124 -112 278 -107 283 3 3 46 -47
97 -111 51 -64 95 -113 99 -109 10 11 50 270 50 319 -1 53 -27 107 -116 238
-92 133 -92 133 -98 115z"/>
</g>
</svg>
